# Blender v2.78 (sub 0) OBJ File: '3.blend'
# www.blender.org
mtllib Pizza_Slice_01.mtl
o Plane.001
v 5.067164 0.034621 -2.010601
v -4.890165 0.052949 -4.999999
v 5.067165 0.034621 2.010597
v -4.890162 0.052949 5.000001
v 9.877842 -1.959520 -0.492876
v 9.877842 -1.959520 0.492870
v 1.687998 0.342677 -2.969553
v -1.667724 0.318563 -3.915360
v -1.667720 0.318563 3.915361
v 1.688001 0.342677 2.969552
v 7.321110 -0.699501 -1.296613
v 7.321111 -0.699501 1.296608
v 5.186824 0.552645 -2.021750
v -4.931164 0.686654 -4.969151
v 5.172060 0.664586 2.010597
v -4.931160 0.686654 4.969153
v 10.169344 -1.391291 -0.492876
v 10.169344 -1.391291 0.492870
v 1.792894 0.972642 -2.969553
v -1.562828 0.948527 -3.915360
v -1.562824 0.948527 3.915361
v 1.848063 0.924668 3.029447
v 7.426004 -0.069536 -1.296613
v 7.426005 -0.069536 1.296608
v 5.067164 0.034621 -0.000002
v -4.890163 0.052949 0.000002
v 10.082383 -2.065992 -0.000003
v 1.687999 0.342677 -0.000001
v -1.667722 0.318563 0.000001
v 7.321110 -0.699501 -0.000002
v 5.172060 0.664586 -0.000002
v -4.984591 0.790132 0.645730
v 10.373886 -1.497762 -0.000003
v 1.933711 0.896281 0.782276
v -1.606786 0.775378 -0.814036
v 7.507587 -0.021561 0.121188
v -6.506289 -0.138218 0.000002
v -6.506288 -0.138218 5.000002
v -6.795386 0.388081 0.019902
v -6.795385 0.396714 5.000002
v -6.506291 -0.138218 -4.999998
v -6.795388 0.396714 -4.999998
v -5.259796 1.458759 0.546884
v -5.259795 1.544477 5.000002
v -5.259799 1.544477 -4.999998
v -6.911206 1.191134 0.352483
v -6.911205 1.344049 5.000002
v -6.911209 1.344050 -4.999998
v -5.828753 -0.121594 -4.999998
v -5.965552 0.556681 -4.999998
v -5.828751 -0.121594 0.000002
v -5.965549 0.556681 5.000002
v -5.828749 -0.121594 5.000002
v -6.165660 1.713917 -4.999998
v -6.165656 1.713917 5.000002
v -6.165658 1.610679 0.483177
v 0.859386 0.670790 -0.417596
v 1.718208 0.670790 -0.773332
v 2.073944 0.670790 -1.632155
v 1.718208 0.670790 -2.490977
v 0.859385 0.670790 -2.846712
v 0.000563 0.670790 -2.490976
v -0.355172 0.670790 -1.632154
v 0.000564 0.670790 -0.773332
v 0.859386 0.670790 -1.632154
v -0.355172 1.060015 -1.632154
v 0.000563 1.060015 -2.490976
v 0.859385 1.060015 -2.846712
v 1.718208 1.060015 -2.490977
v 2.073944 1.060015 -1.632155
v 0.859386 1.060015 -0.417596
v 1.718208 1.060015 -0.773332
v 0.000564 1.060015 -0.773332
v 0.859386 1.060015 -1.632154
v -2.791035 0.607643 3.521858
v -1.891800 0.627039 3.147218
v -1.520039 0.608888 2.246763
v -1.893524 0.563822 1.347968
v -2.793473 0.518240 0.977335
v -3.692708 0.498844 1.351975
v -4.064468 0.516995 2.252430
v -3.690984 0.562061 3.151224
v -2.792254 0.562941 2.249597
v -4.079215 0.924446 2.238128
v -3.707455 0.906295 1.337674
v -2.808220 0.925691 0.963034
v -1.908271 0.971272 1.333666
v -1.534786 1.016338 2.232461
v -2.805782 1.015094 3.507556
v -1.906547 1.034490 3.132916
v -3.705731 0.969512 3.136923
v -2.807001 0.970392 2.235295
v 5.575445 0.278585 1.617157
v 6.392921 0.043604 1.328199
v 6.775367 -0.063421 0.522431
v 6.498749 0.020203 -0.328141
v 5.725107 0.245492 -0.725261
v 4.907629 0.480474 -0.436303
v 4.525184 0.587499 0.369466
v 4.801802 0.503874 1.220036
v 5.650275 0.262038 0.445948
v 4.629606 0.948845 0.371033
v 5.012051 0.841820 -0.434736
v 5.829529 0.606839 -0.723694
v 6.603171 0.381550 -0.326574
v 6.879788 0.297925 0.523997
v 5.679866 0.639932 1.618724
v 6.497344 0.404950 1.329766
v 4.906224 0.865220 1.221603
v 5.754697 0.623386 0.447515
v 1.008210 1.082580 -2.418402
v 1.428847 1.082580 -2.244169
v 1.008210 1.082580 -1.823533
v 1.008210 0.975613 -2.418402
v 1.008210 0.975613 -1.823533
v 1.428847 0.975613 -2.244169
v 0.664738 1.085945 -1.519109
v 0.416731 1.085945 -1.238098
v 0.201525 1.085945 -1.677974
v 0.664738 0.997889 -1.519109
v 0.201525 0.997889 -1.677974
v 0.416731 0.997889 -1.238098
v 1.172686 1.086046 -1.400387
v 1.479392 1.086046 -1.615807
v 1.586074 1.086046 -1.137869
v 1.172686 0.997990 -1.400387
v 1.586074 0.997990 -1.137869
v 1.479392 0.997990 -1.615807
v 5.362547 0.777485 0.979659
v 5.689594 0.658576 0.840464
v 5.681297 0.653312 1.330064
v 5.331933 0.694934 0.978252
v 5.650685 0.570761 1.328657
v 5.658982 0.576025 0.839057
v 6.050988 0.551356 0.376400
v 6.250055 0.496551 0.165382
v 6.395392 0.453777 0.520120
v 6.032219 0.484583 0.376037
v 6.376624 0.387004 0.519757
v 6.231288 0.429778 0.165020
v 5.066409 0.872353 -0.118809
v 5.277431 0.795132 -0.332691
v 5.422185 0.767935 0.044928
v 5.044464 0.802935 -0.115396
v 5.400240 0.698516 0.048340
v 5.255486 0.725714 -0.329279
v -2.872671 0.998273 2.778561
v -2.567950 1.009470 2.835639
v -2.789898 1.025088 3.174438
v -2.870852 0.925554 2.783105
v -2.788078 0.952369 3.178982
v -2.566129 0.936751 2.840185
v -2.724451 1.009248 1.616003
v -2.515342 1.001804 1.283641
v -2.218969 1.031534 1.701487
v -2.721097 0.917132 1.620179
v -2.215614 0.939418 1.705661
v -2.511986 0.909689 1.287815
v -3.182575 0.969727 1.804354
v -3.119863 0.993639 2.191319
v -3.618676 0.963561 2.074714
v -3.178189 0.877694 1.809328
v -3.614290 0.871528 2.079689
v -3.115477 0.901606 2.196296
v 1.722837 0.551908 -2.969553
v 5.102003 0.243851 -2.010601
v 7.355950 -0.490271 1.296608
v 5.102004 0.243851 2.010597
v 9.974659 -1.770794 -0.492876
v 9.974659 -1.770794 0.492870
v -4.903782 0.263421 -4.989753
v -1.632885 0.527793 -3.915360
v 7.355949 -0.490271 -1.296613
v -4.903779 0.263421 4.989756
v -1.632881 0.527793 3.915361
v 1.722840 0.551908 2.969552
v 10.179200 -1.877266 -0.000003
v -6.600008 0.020622 -4.999998
v -6.600004 0.020623 5.000002
v -6.600005 0.020623 0.000002
v -5.874184 0.103682 5.000002
v -5.874188 0.103682 -4.999998
vn -0.0114 0.9993 -0.0365
vn 0.4578 0.8891 -0.0021
vn 0.0714 0.9975 0.0000
vn -0.0280 0.9995 -0.0137
vn 0.2786 0.9586 0.0585
vn 0.2633 -0.0706 -0.9621
vn 0.2874 -0.0479 0.9566
vn 0.8059 -0.4134 -0.4238
vn 0.3047 0.0078 -0.9524
vn 0.2713 -0.0452 -0.9614
vn 0.2836 -0.0748 -0.9560
vn 0.3047 0.0078 0.9524
vn 0.2493 -0.0825 0.9649
vn 0.2493 -0.0825 -0.9649
vn 0.2695 -0.1383 0.9530
vn 0.2589 -0.1359 0.9563
vn 0.8059 -0.4134 0.4238
vn 0.2827 0.9579 -0.0510
vn -0.0440 0.9988 0.0220
vn 0.0581 0.9968 -0.0548
vn 0.4466 0.8930 -0.0559
vn 0.0286 0.9980 0.0561
vn -0.0698 0.9973 0.0247
vn 0.4491 0.8910 0.0675
vn 0.0750 0.9971 -0.0097
vn -0.0025 0.9993 -0.0366
vn 0.3097 0.9508 -0.0000
vn 0.2839 0.9576 -0.0487
vn -0.0228 0.9982 0.0554
vn 0.1185 0.9928 0.0158
vn 0.4579 0.8890 0.0020
vn -0.0716 0.9973 -0.0191
vn 0.0000 -1.0000 -0.0000
vn 0.0000 1.0000 0.0000
vn -0.3827 0.0000 0.9239
vn -0.9239 0.0000 -0.3827
vn 0.3827 0.0000 -0.9239
vn 0.9239 0.0000 0.3827
vn -0.9239 0.0000 0.3827
vn -0.3827 0.0000 -0.9239
vn 0.9239 0.0000 -0.3827
vn 0.3827 0.0000 0.9239
vn 0.0361 -0.9987 0.0351
vn -0.0361 0.9987 -0.0351
vn -0.3815 0.0186 0.9242
vn -0.9236 -0.0468 -0.3804
vn 0.3815 -0.0186 -0.9242
vn 0.9236 0.0468 0.3804
vn -0.9229 -0.0199 0.3845
vn -0.3833 -0.0463 -0.9225
vn 0.9229 0.0199 -0.3845
vn 0.3833 0.0463 0.9225
vn -0.2776 -0.9607 -0.0042
vn 0.2776 0.9607 0.0042
vn -0.4257 0.1191 0.8970
vn -0.8612 0.2508 -0.4421
vn 0.4257 -0.1191 -0.8970
vn 0.8612 -0.2508 0.4421
vn -0.9100 0.2616 0.3217
vn -0.3079 0.0931 -0.9468
vn 0.9100 -0.2616 -0.3217
vn 0.3079 -0.0931 0.9468
vn 0.0821 -0.9966 -0.0000
vn -0.4425 -0.8968 0.0028
vn -0.0908 -0.9959 0.0000
vn 0.0072 -1.0000 0.0000
vn -0.3097 -0.9508 0.0000
vn 0.0245 -0.9997 -0.0000
vn 0.0000 0.0000 -1.0000
vn -0.4425 -0.8968 -0.0028
vn -0.8852 -0.4652 0.0004
vn -0.8852 -0.4652 -0.0004
vn 0.0000 0.0000 1.0000
vn 0.0157 -0.0112 0.9998
vn -0.9913 -0.1316 0.0022
vn -0.4692 0.8828 0.0209
vn -0.4661 0.8844 -0.0247
vn 0.9299 0.3677 -0.0049
vn 0.9298 0.3681 0.0039
vn -0.9914 -0.1308 -0.0020
vn 0.0157 -0.0112 -0.9998
vn 0.1753 0.9843 -0.0207
vn 0.1741 0.9846 0.0169
vn 0.1828 -0.9831 -0.0000
vn 0.0168 0.0258 0.9995
vn 0.0012 0.0237 -0.9997
vn 0.0168 0.0258 -0.9995
vn 0.0012 0.0237 0.9997
vn -0.8613 -0.5081 0.0000
vn 0.2713 -0.0452 0.9614
vn 0.2690 -0.0448 0.9621
vn 0.2572 -0.0851 -0.9626
vn 0.2572 -0.0851 0.9626
vn 0.3150 0.0072 0.9491
vn 0.2874 -0.0479 -0.9566
vn 0.3150 0.0072 -0.9491
vn 0.2689 -0.0448 -0.9621
vn 0.7071 0.0000 0.7071
vn -1.0000 0.0000 0.0000
vn 0.7498 0.0000 0.6617
vn -0.8983 0.0000 0.4395
vn 0.3244 0.0000 -0.9459
vn -0.5748 0.0000 -0.8183
vn 0.9760 0.0000 -0.2179
vn -0.5361 0.0000 0.8442
vn 0.3477 0.9375 0.0160
vn -0.3477 -0.9375 -0.0160
vn -0.3431 0.1431 -0.9283
vn 0.9375 -0.3478 0.0121
vn -0.6749 0.2384 0.6984
vn 0.2706 0.9627 0.0052
vn -0.2706 -0.9627 -0.0052
vn -0.6871 0.1969 -0.6993
vn 0.8859 -0.2469 -0.3927
vn -0.3600 0.0962 0.9280
vn 0.3011 0.9524 -0.0468
vn -0.3011 -0.9524 0.0468
vn -0.6683 0.1757 -0.7228
vn 0.8842 -0.2972 -0.3604
vn -0.3727 0.1627 0.9136
vn -0.0250 0.9977 -0.0624
vn 0.0250 -0.9977 0.0624
vn 0.1858 -0.0567 -0.9809
vn 0.8364 0.0550 0.5454
vn -0.9786 -0.0117 0.2054
vn -0.0364 0.9983 -0.0452
vn 0.0364 -0.9983 0.0452
vn -0.8457 -0.0549 -0.5308
vn 0.8155 0.0035 -0.5787
vn -0.1683 0.0385 0.9850
vn -0.0475 0.9974 -0.0539
vn 0.0475 -0.9974 0.0539
vn 0.9860 0.0382 -0.1622
vn -0.2298 0.0416 0.9723
vn -0.5249 -0.0709 -0.8482
usemtl FFEB3B
s off
f 32//1 21//1 35//1
f 36//2 18//2 33//2
f 34//3 15//3 31//3
f 35//4 22//4 34//4
f 31//5 24//5 36//5
f 166//6 165//6 19//6 13//6
f 168//7 167//7 24//7 15//7
f 177//8 169//8 17//8 33//8
f 172//9 171//9 14//9 20//9
f 165//10 172//10 20//10 19//10
f 173//11 166//11 13//11 23//11
f 174//12 175//12 21//12 16//12
f 167//13 170//13 18//13 24//13
f 169//14 173//14 23//14 17//14
f 176//15 168//15 15//15 22//15
f 175//16 176//16 22//16 21//16
f 170//17 177//17 33//17 18//17
f 31//18 23//18 13//18
f 19//19 35//19 34//19
f 13//20 34//20 31//20
f 36//21 17//21 23//21
f 20//22 32//22 35//22
f 32//23 16//23 21//23
f 36//24 24//24 18//24
f 34//25 22//25 15//25
f 35//26 21//26 22//26
f 31//27 15//27 24//27
f 31//28 36//28 23//28
f 19//29 20//29 35//29
f 13//30 19//30 34//30
f 36//31 33//31 17//31
f 20//32 14//32 32//32
usemtl F44336
f 64//33 65//33 57//33
f 62//33 65//33 63//33
f 60//33 65//33 61//33
f 58//33 65//33 59//33
f 63//33 65//33 64//33
f 61//33 65//33 62//33
f 59//33 65//33 60//33
f 57//33 65//33 58//33
f 73//34 71//34 74//34
f 67//34 66//34 74//34
f 69//34 68//34 74//34
f 72//34 70//34 74//34
f 66//34 73//34 74//34
f 68//34 67//34 74//34
f 70//34 69//34 74//34
f 71//34 72//34 74//34
f 64//35 57//35 71//35 73//35
f 62//36 63//36 66//36 67//36
f 60//37 61//37 68//37 69//37
f 58//38 59//38 70//38 72//38
f 63//39 64//39 73//39 66//39
f 61//40 62//40 67//40 68//40
f 59//41 60//41 69//41 70//41
f 57//42 58//42 72//42 71//42
f 82//43 83//43 75//43
f 80//43 83//43 81//43
f 78//43 83//43 79//43
f 76//43 83//43 77//43
f 81//43 83//43 82//43
f 79//43 83//43 80//43
f 77//43 83//43 78//43
f 75//43 83//43 76//43
f 91//44 89//44 92//44
f 85//44 84//44 92//44
f 87//44 86//44 92//44
f 90//44 88//44 92//44
f 84//44 91//44 92//44
f 86//44 85//44 92//44
f 88//44 87//44 92//44
f 89//44 90//44 92//44
f 82//45 75//45 89//45 91//45
f 80//46 81//46 84//46 85//46
f 78//47 79//47 86//47 87//47
f 76//48 77//48 88//48 90//48
f 81//49 82//49 91//49 84//49
f 79//50 80//50 85//50 86//50
f 77//51 78//51 87//51 88//51
f 75//52 76//52 90//52 89//52
f 100//53 101//53 93//53
f 98//53 101//53 99//53
f 96//53 101//53 97//53
f 94//53 101//53 95//53
f 99//53 101//53 100//53
f 97//53 101//53 98//53
f 95//53 101//53 96//53
f 93//53 101//53 94//53
f 109//54 107//54 110//54
f 103//54 102//54 110//54
f 105//54 104//54 110//54
f 108//54 106//54 110//54
f 102//54 109//54 110//54
f 104//54 103//54 110//54
f 106//54 105//54 110//54
f 107//54 108//54 110//54
f 100//55 93//55 107//55 109//55
f 98//56 99//56 102//56 103//56
f 96//57 97//57 104//57 105//57
f 94//58 95//58 106//58 108//58
f 99//59 100//59 109//59 102//59
f 97//60 98//60 103//60 104//60
f 95//61 96//61 105//61 106//61
f 93//62 94//62 108//62 107//62
usemtl FFCC88
f 29//63 9//63 4//63 26//63
f 30//64 27//64 6//64 12//64
f 25//65 3//65 10//65 28//65
f 28//66 10//66 9//66 29//66
f 25//67 30//67 12//67 3//67
f 49//68 51//68 37//68 41//68
f 182//69 49//69 41//69 178//69
f 1//67 11//67 30//67 25//67
f 7//66 28//66 29//66 8//66
f 1//65 25//65 28//65 7//65
f 11//70 5//70 27//70 30//70
f 8//63 29//63 26//63 2//63
f 180//71 179//71 40//71 39//71
f 178//72 180//72 39//72 42//72
f 181//73 52//73 40//73 179//73
f 51//68 53//68 38//68 37//68
f 52//74 16//74 44//74 55//74
f 39//75 40//75 47//75 46//75
f 56//76 54//76 48//76 46//76
f 55//77 56//77 46//77 47//77
f 50//69 42//69 48//69 54//69
f 16//78 32//78 43//78 44//78
f 32//79 14//79 45//79 43//79
f 42//80 39//80 46//80 48//80
f 14//81 50//81 54//81 45//81
f 44//82 43//82 56//82 55//82
f 43//83 45//83 54//83 56//83
f 40//73 52//73 55//73 47//73
f 26//84 4//84 53//84 51//84
f 174//85 16//85 52//85 181//85
f 171//86 2//86 49//86 182//86
f 2//84 26//84 51//84 49//84
f 14//87 171//87 182//87 50//87
f 4//88 174//88 181//88 53//88
f 53//73 181//73 179//73 38//73
f 41//89 37//89 180//89 178//89
f 37//89 38//89 179//89 180//89
f 6//17 27//17 177//17 170//17
f 50//69 182//69 178//69 42//69
f 9//90 10//90 176//90 175//90
f 10//91 3//91 168//91 176//91
f 5//92 11//92 173//92 169//92
f 12//93 6//93 170//93 167//93
f 4//94 9//94 175//94 174//94
f 11//95 1//95 166//95 173//95
f 7//10 8//10 172//10 165//10
f 8//96 2//96 171//96 172//96
f 27//8 5//8 169//8 177//8
f 3//7 12//7 167//7 168//7
f 1//97 7//97 165//97 166//97
usemtl FF5722
f 112//34 111//34 113//34
f 116//33 115//33 114//33
f 112//37 116//37 114//37 111//37
f 113//98 115//98 116//98 112//98
f 111//99 114//99 115//99 113//99
f 118//34 117//34 119//34
f 122//33 121//33 120//33
f 118//100 122//100 120//100 117//100
f 119//101 121//101 122//101 118//101
f 117//102 120//102 121//102 119//102
f 124//34 123//34 125//34
f 128//33 127//33 126//33
f 124//103 128//103 126//103 123//103
f 125//104 127//104 128//104 124//104
f 123//105 126//105 127//105 125//105
f 130//106 129//106 131//106
f 134//107 133//107 132//107
f 130//108 134//108 132//108 129//108
f 131//109 133//109 134//109 130//109
f 129//110 132//110 133//110 131//110
f 136//111 135//111 137//111
f 140//112 139//112 138//112
f 136//113 140//113 138//113 135//113
f 137//114 139//114 140//114 136//114
f 135//115 138//115 139//115 137//115
f 142//116 141//116 143//116
f 146//117 145//117 144//117
f 142//118 146//118 144//118 141//118
f 143//119 145//119 146//119 142//119
f 141//120 144//120 145//120 143//120
f 148//121 147//121 149//121
f 152//122 151//122 150//122
f 148//123 152//123 150//123 147//123
f 149//124 151//124 152//124 148//124
f 147//125 150//125 151//125 149//125
f 154//126 153//126 155//126
f 158//127 157//127 156//127
f 154//128 158//128 156//128 153//128
f 155//129 157//129 158//129 154//129
f 153//130 156//130 157//130 155//130
f 160//131 159//131 161//131
f 164//132 163//132 162//132
f 160//133 164//133 162//133 159//133
f 161//134 163//134 164//134 160//134
f 159//135 162//135 163//135 161//135
