# This file uses centimeters as units for non-parametric coordinates.

mtllib IceCream_01.mtl
g default
v 0.000000 0.000000 -24.025789
v 9.807233 7.125370 24.025787
v 3.746029 11.547464 24.025787
v -3.746029 11.547464 24.025787
v -9.807231 7.125370 24.025787
v -12.122401 0.000000 24.025787
v -9.807230 -7.125370 24.025787
v -3.746028 -11.538088 24.025787
v 3.746027 -11.538088 24.025787
v 9.807227 -7.106994 24.025787
v 12.122399 0.000000 24.025787
v 12.033488 8.742836 25.284153
v 4.596383 14.731692 25.284153
v -4.596382 14.731692 25.284153
v -12.033484 8.742836 25.284153
v -14.874202 0.000000 25.284153
v -12.033482 -8.742836 25.284153
v -4.596381 -14.488702 25.284153
v 4.596380 -14.488702 25.284153
v 12.033481 -8.043467 25.284153
v 14.874199 0.000000 25.284153
v 14.351197 10.426747 29.435880
v 5.481670 18.367082 29.435880
v -5.481667 18.367082 29.435880
v -14.351193 10.426747 29.435880
v -17.739047 0.000000 29.435880
v -14.351188 -10.426747 29.435880
v -5.481666 -17.898601 29.435880
v 5.481666 -17.898601 29.435880
v 14.351188 -8.328055 29.435880
v 17.739042 0.000000 29.435880
v 14.869356 10.803208 35.195482
v 5.679589 18.976215 35.195482
v -5.679586 18.976215 35.195482
v -14.869351 10.803208 35.195482
v -18.379529 0.000000 35.195482
v -14.869348 -10.803208 35.195482
v -5.679585 -18.507733 35.195482
v 5.679585 -18.507733 35.195482
v 14.869347 -10.367389 35.195482
v 18.379523 0.000000 35.195482
v 12.778909 9.284413 38.592933
v 4.881109 15.815961 38.592933
v -4.881107 15.815961 38.592933
v -12.778906 9.284413 38.592933
v -15.795597 0.000000 38.592933
v -12.778903 -9.284413 38.592933
v -4.881106 -15.512683 38.592933
v 4.881106 -15.512683 38.592933
v 12.778902 -9.284413 38.592933
v 15.795591 0.000000 38.592933
v 11.850686 8.610022 44.759316
v 4.526559 13.931314 44.759316
v -4.526558 13.931314 44.759316
v -11.850682 8.610022 44.759316
v -14.648249 0.000000 44.759316
v -11.850680 -8.610022 44.759316
v -4.526557 -13.931314 44.759316
v 4.526557 -13.931314 44.759316
v 11.850679 -8.610022 44.759316
v 14.648244 0.000000 44.759316
v 9.166183 6.659619 49.639706
v 3.501170 10.775493 49.639706
v -3.501170 10.775493 49.639706
v -9.166183 6.659619 49.639706
v -11.330023 0.000000 49.639706
v -9.166180 -6.659619 49.639706
v -3.501169 -10.775493 49.639706
v 3.501168 -10.775493 49.639706
v 9.166178 -6.659619 49.639706
v 11.330018 0.000000 49.639706
v 4.676439 3.397631 51.894290
v -0.000001 0.000000 52.365092
v 1.786240 5.497486 51.894290
v -1.786243 5.497486 51.894290
v -4.676444 3.397631 51.894290
v -5.780401 0.000000 51.894290
v -4.676442 -3.397631 51.894290
v -1.786243 -5.497486 51.894290
v 1.786239 -5.497486 51.894290
v 4.676439 -3.397631 51.894290
v 5.780396 0.000000 51.894290
vt 0.500000 0.312500
vt 0.387500 0.688440
vt 0.412500 0.688440
vt 0.437500 0.688440
vt 0.462500 0.688440
vt 0.487500 0.688440
vt 0.512500 0.688440
vt 0.537500 0.688440
vt 0.562500 0.688440
vt 0.587500 0.688440
vt 0.612500 0.688440
vt 0.626409 0.751908
vt 0.548284 0.695147
vt 0.451716 0.695147
vt 0.373591 0.751909
vt 0.343750 0.843750
vt 0.373591 0.935591
vt 0.451716 0.992353
vt 0.548284 0.992353
vt 0.626409 0.935591
vt 0.656250 0.843750
vt 0.500000 0.837500
vt 0.626409 0.935591
vt 0.548284 0.992353
vt 0.451716 0.992353
vt 0.373591 0.935591
vt 0.343750 0.843750
vt 0.373591 0.751909
vt 0.451716 0.695147
vt 0.548284 0.695147
vt 0.626409 0.751908
vt 0.656250 0.843750
vt 0.626409 0.935591
vt 0.548284 0.992353
vt 0.451716 0.992353
vt 0.373591 0.935591
vt 0.343750 0.843750
vt 0.373591 0.751909
vt 0.451716 0.695147
vt 0.548284 0.695147
vt 0.626409 0.751908
vt 0.656250 0.843750
vt 0.626409 0.935591
vt 0.548284 0.992353
vt 0.451716 0.992353
vt 0.373591 0.935591
vt 0.343750 0.843750
vt 0.373591 0.751909
vt 0.451716 0.695147
vt 0.548284 0.695147
vt 0.626409 0.751908
vt 0.656250 0.843750
vt 0.626409 0.935591
vt 0.548284 0.992353
vt 0.451716 0.992353
vt 0.373591 0.935591
vt 0.343750 0.843750
vt 0.373591 0.751909
vt 0.451716 0.695147
vt 0.548284 0.695147
vt 0.626409 0.751908
vt 0.656250 0.843750
vt 0.626409 0.935591
vt 0.548284 0.992353
vt 0.451716 0.992353
vt 0.373591 0.935591
vt 0.343750 0.843750
vt 0.373591 0.751909
vt 0.451716 0.695147
vt 0.548284 0.695147
vt 0.626409 0.751908
vt 0.656250 0.843750
vt 0.626409 0.935591
vt 0.548284 0.992353
vt 0.451716 0.992353
vt 0.373591 0.935591
vt 0.343750 0.843750
vt 0.373591 0.751909
vt 0.451716 0.695147
vt 0.548284 0.695147
vt 0.626409 0.751908
vt 0.656250 0.843750
vt 0.626409 0.935591
vt 0.548284 0.992353
vt 0.451716 0.992353
vt 0.373591 0.935591
vt 0.343750 0.843750
vt 0.373591 0.751909
vt 0.451716 0.695147
vt 0.548284 0.695147
vt 0.626409 0.751908
vt 0.656250 0.843750
vn 0.784842 0.569374 -0.244615
vn -0.000548 0.000265 -1.000000
vn 0.300665 0.921739 -0.244946
vn -0.300665 0.921739 -0.244946
vn -0.784842 0.569374 -0.244615
vn -0.969620 -0.000000 -0.244615
vn -0.784637 -0.569657 -0.244615
vn -0.300137 -0.921956 -0.244777
vn 0.301220 -0.921602 -0.244777
vn 0.784696 -0.569663 -0.244410
vn 0.969620 0.000018 -0.244615
vn 0.000000 -0.000000 1.000000
vn 0.065675 0.047716 0.996700
vn 0.025086 0.077206 0.996700
vn -0.025086 0.077206 0.996700
vn -0.065676 0.047716 0.996700
vn -0.081179 -0.000000 0.996700
vn -0.065675 -0.047716 0.996700
vn -0.025086 -0.077206 0.996700
vn 0.025086 -0.077206 0.996700
vn 0.065676 -0.047716 0.996700
vn 0.081179 0.000000 0.996700
vn 0.247366 0.320722 -0.914302
vn 0.247366 0.320722 -0.914302
vn 0.247366 0.320722 -0.914302
vn 0.247366 0.320721 -0.914302
vn 0.000000 0.367529 -0.930012
vn 0.000000 0.367529 -0.930012
vn 0.000000 0.367529 -0.930012
vn 0.000000 0.367529 -0.930012
vn -0.247366 0.320722 -0.914302
vn -0.247366 0.320722 -0.914302
vn -0.247366 0.320722 -0.914302
vn -0.247366 0.320722 -0.914302
vn -0.412124 0.133907 -0.901234
vn -0.412124 0.133907 -0.901234
vn -0.412124 0.133907 -0.901234
vn -0.412124 0.133907 -0.901234
vn -0.412124 -0.133907 -0.901234
vn -0.412124 -0.133907 -0.901234
vn -0.412124 -0.133907 -0.901234
vn -0.412124 -0.133907 -0.901234
vn -0.250207 -0.332465 -0.909320
vn -0.250207 -0.332465 -0.909320
vn -0.250207 -0.332465 -0.909320
vn -0.250207 -0.332465 -0.909320
vn 0.000000 -0.392290 -0.919841
vn 0.000000 -0.392290 -0.919842
vn 0.000000 -0.392290 -0.919841
vn 0.000000 -0.392290 -0.919841
vn 0.284033 -0.352506 -0.891664
vn 0.284033 -0.352506 -0.891664
vn 0.284033 -0.352506 -0.891664
vn 0.284033 -0.352506 -0.891664
vn 0.424660 -0.144517 -0.893744
vn 0.424660 -0.144517 -0.893744
vn 0.424660 -0.144517 -0.893744
vn 0.424660 -0.144517 -0.893744
vn 0.412124 0.133907 -0.901234
vn 0.412124 0.133907 -0.901234
vn 0.412124 0.133907 -0.901234
vn 0.412124 0.133907 -0.901234
vn 0.522687 0.611900 -0.593614
vn 0.522687 0.611900 -0.593614
vn 0.522687 0.611900 -0.593614
vn 0.522687 0.611900 -0.593614
vn 0.000000 0.752340 -0.658775
vn 0.000000 0.752340 -0.658775
vn 0.000000 0.752340 -0.658774
vn 0.000000 0.752340 -0.658775
vn -0.522687 0.611900 -0.593614
vn -0.522687 0.611900 -0.593614
vn -0.522687 0.611900 -0.593614
vn -0.522687 0.611900 -0.593614
vn -0.795124 0.258351 -0.548665
vn -0.795124 0.258351 -0.548665
vn -0.795124 0.258351 -0.548665
vn -0.795124 0.258351 -0.548665
vn -0.795124 -0.258351 -0.548664
vn -0.795124 -0.258351 -0.548664
vn -0.795124 -0.258351 -0.548665
vn -0.795124 -0.258351 -0.548664
vn -0.511147 -0.630599 -0.584016
vn -0.511147 -0.630599 -0.584016
vn -0.511147 -0.630599 -0.584016
vn -0.511147 -0.630599 -0.584016
vn 0.000000 -0.772767 -0.634690
vn 0.000000 -0.772767 -0.634690
vn 0.000000 -0.772767 -0.634690
vn 0.000000 -0.772767 -0.634690
vn 0.604104 -0.615075 -0.506696
vn 0.604104 -0.615075 -0.506696
vn 0.604104 -0.615075 -0.506696
vn 0.604104 -0.615075 -0.506696
vn 0.803026 -0.305512 -0.511675
vn 0.803026 -0.305512 -0.511675
vn 0.803026 -0.305513 -0.511675
vn 0.803026 -0.305513 -0.511675
vn 0.795124 0.258351 -0.548665
vn 0.795124 0.258351 -0.548665
vn 0.795124 0.258351 -0.548665
vn 0.795124 0.258351 -0.548665
vn 0.662107 0.742067 -0.104651
vn 0.662107 0.742067 -0.104651
vn 0.662107 0.742067 -0.104651
vn 0.662107 0.742067 -0.104651
vn 0.000000 0.994454 -0.105173
vn 0.000000 0.994454 -0.105173
vn 0.000000 0.994454 -0.105173
vn 0.000000 0.994454 -0.105173
vn -0.662107 0.742067 -0.104651
vn -0.662107 0.742067 -0.104651
vn -0.662107 0.742067 -0.104651
vn -0.662107 0.742067 -0.104651
vn -0.945782 0.307303 -0.105173
vn -0.945782 0.307303 -0.105173
vn -0.945782 0.307303 -0.105173
vn -0.945782 0.307303 -0.105173
vn -0.945782 -0.307304 -0.105173
vn -0.945782 -0.307304 -0.105173
vn -0.945782 -0.307304 -0.105173
vn -0.945782 -0.307304 -0.105173
vn -0.639805 -0.761342 -0.104914
vn -0.639805 -0.761342 -0.104914
vn -0.639805 -0.761342 -0.104914
vn -0.639805 -0.761342 -0.104914
vn 0.000000 -0.994454 -0.105172
vn 0.000000 -0.994454 -0.105172
vn 0.000000 -0.994454 -0.105172
vn 0.000000 -0.994454 -0.105172
vn 0.685558 -0.699044 -0.203339
vn 0.685558 -0.699044 -0.203339
vn 0.685558 -0.699044 -0.203339
vn 0.685558 -0.699044 -0.203339
vn 0.927015 -0.342039 -0.153796
vn 0.927015 -0.342039 -0.153796
vn 0.927015 -0.342039 -0.153796
vn 0.927015 -0.342039 -0.153796
vn 0.945782 0.307302 -0.105173
vn 0.945782 0.307302 -0.105173
vn 0.945782 0.307302 -0.105173
vn 0.945782 0.307302 -0.105173
vn 0.509521 0.592093 0.624351
vn 0.509521 0.592093 0.624351
vn 0.509521 0.592093 0.624351
vn 0.509521 0.592093 0.624351
vn 0.000000 0.732205 0.681085
vn 0.000000 0.732205 0.681085
vn 0.000000 0.732205 0.681085
vn 0.000000 0.732205 0.681085
vn -0.509521 0.592093 0.624351
vn -0.509521 0.592093 0.624351
vn -0.509521 0.592093 0.624351
vn -0.509521 0.592093 0.624351
vn -0.770598 0.250383 0.586078
vn -0.770598 0.250383 0.586078
vn -0.770598 0.250383 0.586078
vn -0.770598 0.250383 0.586078
vn -0.770598 -0.250383 0.586078
vn -0.770598 -0.250383 0.586078
vn -0.770598 -0.250383 0.586078
vn -0.770598 -0.250383 0.586078
vn -0.497431 -0.610064 0.616753
vn -0.497431 -0.610064 0.616753
vn -0.497431 -0.610064 0.616753
vn -0.497431 -0.610064 0.616753
vn 0.000000 -0.750134 0.661286
vn 0.000000 -0.750134 0.661286
vn 0.000000 -0.750134 0.661286
vn 0.000000 -0.750134 0.661286
vn 0.519081 -0.617306 0.591175
vn 0.519081 -0.617306 0.591175
vn 0.519081 -0.617306 0.591175
vn 0.519081 -0.617306 0.591175
vn 0.776342 -0.257843 0.575160
vn 0.776342 -0.257843 0.575160
vn 0.776342 -0.257843 0.575160
vn 0.776342 -0.257843 0.575160
vn 0.770598 0.250382 0.586079
vn 0.770598 0.250382 0.586079
vn 0.770598 0.250382 0.586079
vn 0.770598 0.250382 0.586079
vn 0.599056 0.769333 0.221946
vn 0.599055 0.769333 0.221946
vn 0.599056 0.769333 0.221946
vn 0.599056 0.769333 0.221946
vn 0.000000 0.956331 0.292286
vn 0.000000 0.956331 0.292286
vn 0.000000 0.956331 0.292286
vn 0.000000 0.956331 0.292286
vn -0.599056 0.769333 0.221946
vn -0.599056 0.769333 0.221946
vn -0.599056 0.769333 0.221946
vn -0.599056 0.769333 0.221946
vn -0.936507 0.304289 0.174251
vn -0.936507 0.304290 0.174251
vn -0.936507 0.304289 0.174251
vn -0.936507 0.304289 0.174251
vn -0.936506 -0.304290 0.174251
vn -0.936506 -0.304290 0.174251
vn -0.936506 -0.304290 0.174251
vn -0.936506 -0.304290 0.174251
vn -0.591715 -0.779859 0.204189
vn -0.591715 -0.779859 0.204189
vn -0.591715 -0.779859 0.204189
vn -0.591715 -0.779859 0.204189
vn 0.000000 -0.968655 0.248412
vn 0.000000 -0.968655 0.248412
vn 0.000000 -0.968655 0.248412
vn 0.000000 -0.968655 0.248412
vn 0.591715 -0.779859 0.204189
vn 0.591715 -0.779859 0.204189
vn 0.591715 -0.779859 0.204189
vn 0.591715 -0.779859 0.204189
vn 0.936507 -0.304289 0.174251
vn 0.936507 -0.304289 0.174251
vn 0.936507 -0.304289 0.174251
vn 0.936507 -0.304289 0.174251
vn 0.936507 0.304289 0.174251
vn 0.936507 0.304289 0.174251
vn 0.936507 0.304289 0.174251
vn 0.936507 0.304289 0.174251
vn 0.493583 0.679358 0.542999
vn 0.493583 0.679358 0.542999
vn 0.493583 0.679358 0.542999
vn 0.493583 0.679358 0.542999
vn 0.000000 0.839733 0.542999
vn 0.000000 0.839733 0.543000
vn 0.000000 0.839733 0.543000
vn 0.000000 0.839733 0.543000
vn -0.493583 0.679358 0.542999
vn -0.493583 0.679358 0.542999
vn -0.493583 0.679358 0.542999
vn -0.493583 0.679358 0.542999
vn -0.798634 0.259492 0.542999
vn -0.798634 0.259492 0.542999
vn -0.798634 0.259492 0.542999
vn -0.798634 0.259492 0.542999
vn -0.798634 -0.259492 0.542999
vn -0.798634 -0.259492 0.542999
vn -0.798634 -0.259492 0.542999
vn -0.798634 -0.259492 0.542999
vn -0.493583 -0.679358 0.542999
vn -0.493583 -0.679358 0.542999
vn -0.493583 -0.679358 0.542999
vn -0.493583 -0.679358 0.542999
vn 0.000000 -0.839733 0.542999
vn 0.000000 -0.839733 0.542999
vn 0.000000 -0.839733 0.542999
vn 0.000000 -0.839733 0.542999
vn 0.493583 -0.679358 0.542999
vn 0.493583 -0.679358 0.542999
vn 0.493583 -0.679358 0.542999
vn 0.493583 -0.679358 0.542999
vn 0.798634 -0.259492 0.542999
vn 0.798634 -0.259492 0.542999
vn 0.798634 -0.259492 0.542999
vn 0.798634 -0.259492 0.542999
vn 0.798634 0.259491 0.542999
vn 0.798634 0.259491 0.542999
vn 0.798634 0.259491 0.542999
vn 0.798634 0.259491 0.542999
vn 0.230898 0.317804 0.919612
vn 0.230898 0.317804 0.919612
vn 0.230898 0.317804 0.919612
vn 0.230898 0.317804 0.919612
vn 0.000000 0.392827 0.919612
vn 0.000000 0.392827 0.919612
vn 0.000000 0.392827 0.919612
vn 0.000000 0.392827 0.919612
vn -0.230898 0.317804 0.919612
vn -0.230898 0.317804 0.919612
vn -0.230898 0.317804 0.919612
vn -0.230898 0.317804 0.919612
vn -0.373601 0.121390 0.919612
vn -0.373601 0.121390 0.919612
vn -0.373601 0.121390 0.919612
vn -0.373601 0.121390 0.919612
vn -0.373601 -0.121390 0.919612
vn -0.373601 -0.121390 0.919612
vn -0.373601 -0.121390 0.919612
vn -0.373601 -0.121390 0.919612
vn -0.230898 -0.317804 0.919612
vn -0.230898 -0.317804 0.919612
vn -0.230898 -0.317804 0.919612
vn -0.230898 -0.317804 0.919612
vn 0.000000 -0.392827 0.919612
vn 0.000000 -0.392827 0.919612
vn 0.000000 -0.392827 0.919612
vn 0.000000 -0.392827 0.919612
vn 0.230898 -0.317804 0.919612
vn 0.230898 -0.317804 0.919612
vn 0.230898 -0.317804 0.919612
vn 0.230898 -0.317804 0.919612
vn 0.373601 -0.121390 0.919612
vn 0.373601 -0.121390 0.919612
vn 0.373601 -0.121390 0.919612
vn 0.373601 -0.121390 0.919612
vn 0.373601 0.121390 0.919612
vn 0.373601 0.121390 0.919612
vn 0.373601 0.121390 0.919612
vn 0.373601 0.121390 0.919612
s 1
g pasted__pCylinder4 group
usemtl blinn4SG
f 2/2/1 1/1/2 3/3/3
f 3/3/3 1/1/2 4/4/4
f 4/4/4 1/1/2 5/5/5
f 5/5/5 1/1/2 6/6/6
f 6/6/6 1/1/2 7/7/7
f 7/7/7 1/1/2 8/8/8
f 8/8/8 1/1/2 9/9/9
f 9/9/9 1/1/2 10/10/10
f 10/10/10 1/1/2 11/11/11
f 11/11/11 1/1/2 2/2/1
s 2
usemtl blinn8SG
f 73/22/12 72/83/13 74/84/14
f 73/22/12 74/84/14 75/85/15
f 73/22/12 75/85/15 76/86/16
f 73/22/12 76/86/16 77/87/17
f 73/22/12 77/87/17 78/88/18
f 73/22/12 78/88/18 79/89/19
f 73/22/12 79/89/19 80/90/20
f 73/22/12 80/90/20 81/91/21
f 73/22/12 81/91/21 82/92/22
f 73/22/12 82/92/22 72/83/13
s off
f 2/20/23 3/19/24 13/24/25 12/23/26
f 3/19/27 4/18/28 14/25/29 13/24/30
f 4/18/31 5/17/32 15/26/33 14/25/34
f 5/17/35 6/16/36 16/27/37 15/26/38
f 6/16/39 7/15/40 17/28/41 16/27/42
f 7/15/43 8/14/44 18/29/45 17/28/46
f 8/14/47 9/13/48 19/30/49 18/29/50
f 9/13/51 10/12/52 20/31/53 19/30/54
f 10/12/55 11/21/56 21/32/57 20/31/58
f 11/21/59 2/20/60 12/23/61 21/32/62
f 12/23/63 13/24/64 23/34/65 22/33/66
f 13/24/67 14/25/68 24/35/69 23/34/70
f 14/25/71 15/26/72 25/36/73 24/35/74
f 15/26/75 16/27/76 26/37/77 25/36/78
f 16/27/79 17/28/80 27/38/81 26/37/82
f 17/28/83 18/29/84 28/39/85 27/38/86
f 18/29/87 19/30/88 29/40/89 28/39/90
f 19/30/91 20/31/92 30/41/93 29/40/94
f 20/31/95 21/32/96 31/42/97 30/41/98
f 21/32/99 12/23/100 22/33/101 31/42/102
f 22/33/103 23/34/104 33/44/105 32/43/106
f 23/34/107 24/35/108 34/45/109 33/44/110
f 24/35/111 25/36/112 35/46/113 34/45/114
f 25/36/115 26/37/116 36/47/117 35/46/118
f 26/37/119 27/38/120 37/48/121 36/47/122
f 27/38/123 28/39/124 38/49/125 37/48/126
f 28/39/127 29/40/128 39/50/129 38/49/130
f 29/40/131 30/41/132 40/51/133 39/50/134
f 30/41/135 31/42/136 41/52/137 40/51/138
f 31/42/139 22/33/140 32/43/141 41/52/142
f 32/43/143 33/44/144 43/54/145 42/53/146
f 33/44/147 34/45/148 44/55/149 43/54/150
f 34/45/151 35/46/152 45/56/153 44/55/154
f 35/46/155 36/47/156 46/57/157 45/56/158
f 36/47/159 37/48/160 47/58/161 46/57/162
f 37/48/163 38/49/164 48/59/165 47/58/166
f 38/49/167 39/50/168 49/60/169 48/59/170
f 39/50/171 40/51/172 50/61/173 49/60/174
f 40/51/175 41/52/176 51/62/177 50/61/178
f 41/52/179 32/43/180 42/53/181 51/62/182
f 42/53/183 43/54/184 53/64/185 52/63/186
f 43/54/187 44/55/188 54/65/189 53/64/190
f 44/55/191 45/56/192 55/66/193 54/65/194
f 45/56/195 46/57/196 56/67/197 55/66/198
f 46/57/199 47/58/200 57/68/201 56/67/202
f 47/58/203 48/59/204 58/69/205 57/68/206
f 48/59/207 49/60/208 59/70/209 58/69/210
f 49/60/211 50/61/212 60/71/213 59/70/214
f 50/61/215 51/62/216 61/72/217 60/71/218
f 51/62/219 42/53/220 52/63/221 61/72/222
f 52/63/223 53/64/224 63/74/225 62/73/226
f 53/64/227 54/65/228 64/75/229 63/74/230
f 54/65/231 55/66/232 65/76/233 64/75/234
f 55/66/235 56/67/236 66/77/237 65/76/238
f 56/67/239 57/68/240 67/78/241 66/77/242
f 57/68/243 58/69/244 68/79/245 67/78/246
f 58/69/247 59/70/248 69/80/249 68/79/250
f 59/70/251 60/71/252 70/81/253 69/80/254
f 60/71/255 61/72/256 71/82/257 70/81/258
f 61/72/259 52/63/260 62/73/261 71/82/262
f 62/73/263 63/74/264 74/84/265 72/83/266
f 63/74/267 64/75/268 75/85/269 74/84/270
f 64/75/271 65/76/272 76/86/273 75/85/274
f 65/76/275 66/77/276 77/87/277 76/86/278
f 66/77/279 67/78/280 78/88/281 77/87/282
f 67/78/283 68/79/284 79/89/285 78/88/286
f 68/79/287 69/80/288 80/90/289 79/89/290
f 69/80/291 70/81/292 81/91/293 80/90/294
f 70/81/295 71/82/296 82/92/297 81/91/298
f 71/82/299 62/73/300 72/83/301 82/92/302
